<?xml version="1.0" encoding="UTF-8"?>
<svg id="Layer_1" data-name="Layer 1" xmlns="http://www.w3.org/2000/svg" viewBox="0 0 194.45 53.39">
  <defs>
    <style>
      .cls-1 {
        fill: #960000;
      }

      .cls-1, .cls-2, .cls-3, .cls-4 {
        stroke-width: 0px;
      }

      .cls-2 {
        fill: #433f36;
      }

      .cls-3 {
        fill: #e8cf92;
      }

      .cls-4 {
        fill: #fff;
      }
    </style>
  </defs>
  <g>
    <path class="cls-4" d="m9.51,17.03c1.22-2.13,3.27-3.83,6.39-3.83,7.99,0,9.13,9.24,9.13,13.99s-1.37,14.23-9.2,14.23c-3.04,0-4.94-1.64-6.31-3.65v15.63H0V13.68h9.51v3.34Zm2.51,2.98c-2.97,0-3.19,5.65-3.19,7.3s.23,7.3,3.27,7.3,3.35-5.59,3.35-7.3-.23-7.3-3.42-7.3Z"/>
    <path class="cls-4" d="m47.45,20.07c-.46-.06-.91-.12-1.37-.12-5.7,0-6.46,2.55-6.46,6.51v14.41h-9.51V13.68h9.51v3.34c2.13-2.49,3.95-3.83,7.83-4.32v7.36Z"/>
    <path class="cls-4" d="m56.2,9.61c-3.35,0-6.01-2.13-6.01-4.8s2.66-4.8,6.01-4.8,6.01,2.13,6.01,4.8-2.66,4.8-6.01,4.8Zm-4.79,31.25V13.68h9.51v27.18h-9.51Z"/>
    <path class="cls-4" d="m82.13,40.86h-8.75l-9.73-27.18h9.35c1.6,5.11,3.35,10.22,4.64,15.38.23-1.16.68-2.25.99-3.34l3.5-12.04h9.89l-9.89,27.18Z"/>
    <path class="cls-4" d="m105.93,41.41c-9.73,0-12.93-7.54-12.93-14.11s3.19-14.11,12.93-14.11,12.78,7.36,12.78,14.11-2.74,14.11-12.78,14.11Zm0-21.4c-3.12,0-3.35,5.53-3.35,7.3s.23,7.3,3.35,7.3,3.19-5.65,3.19-7.3-.23-7.3-3.19-7.3Z"/>
    <path class="cls-4" d="m135.74,41.41c-9.73,0-12.93-7.54-12.93-14.11s3.19-14.11,12.93-14.11,12.78,7.36,12.78,14.11-2.74,14.11-12.78,14.11Zm0-21.4c-3.12,0-3.35,5.53-3.35,7.3s.23,7.3,3.35,7.3,3.19-5.65,3.19-7.3-.23-7.3-3.19-7.3Z"/>
    <path class="cls-4" d="m164.03,20.01v20.86h-9.51v-20.86h-3.27v-6.32h3.27v-7.72h9.51v7.72h3.88v6.32h-3.88Z"/>
    <path class="cls-4" d="m193.84,31.5c-.08,2.86-1.52,6.02-3.65,7.78-2.36,1.89-4.94,2.13-7.38,2.13-2.81,0-5.55-.36-8.14-2.43-2.59-2.07-4.64-5.59-4.64-11.01,0-4.68,1.45-9.49,4.94-12.28,2.28-1.82,4.94-2.49,7.76-2.49,3.42,0,5.7.97,7.3,2.19,3.19,2.43,4.41,6.87,4.41,10.58,0,.85-.08,1.76-.23,2.68h-15.06c-.08.43-.08.97-.08,1.52,0,1.76.3,3.89,1.37,4.8.53.49,1.22.73,1.98.73s1.45-.18,1.9-.49c1.06-.73,1.37-2.86,1.44-3.71h8.06Zm-7.68-7.54c0-1.58-.46-3.71-1.52-4.44-.53-.37-1.22-.55-1.75-.55-.84,0-1.6.3-2.13.73-.99.85-1.45,2.92-1.45,4.26h6.84Z"/>
  </g>
  <rect class="cls-3" x="91.41" y="23.27" width="28.72" height="21.09"/>
  <rect class="cls-1" x="91.42" y="23.27" width="28.71" height="1.44"/>
  <path class="cls-2" d="m109.97,32.73c0,1.58-.94,2.96-2.3,3.62v5.9h-3.55v-5.79c-1.5-.62-2.55-2.06-2.55-3.74,0-2.25,1.88-4.06,4.19-4.06s4.2,1.82,4.2,4.06Z"/>
</svg>
