<?xml version="1.0" encoding="UTF-8"?>
<svg id="Layer_1" data-name="Layer 1" xmlns="http://www.w3.org/2000/svg" viewBox="0 0 78.99 85.71">
  <defs>
    <style>
      .cls-1 {
        fill: #960000;
      }

      .cls-1, .cls-2, .cls-3, .cls-4 {
        stroke-width: 0px;
      }

      .cls-2 {
        fill: #433f36;
      }

      .cls-3 {
        fill: #e8cf92;
      }

      .cls-4 {
        fill: #fff;
      }
    </style>
  </defs>
  <path class="cls-4" d="m39.94,77.6c-26.77,0-35.56-20.74-35.56-38.8S13.17,0,39.94,0s35.14,20.24,35.14,38.8-7.53,38.8-35.14,38.8Zm0-58.87c-8.58,0-9.2,15.22-9.2,20.07s.63,20.07,9.2,20.07,8.78-15.55,8.78-20.07-.63-20.07-8.78-20.07Z"/>
  <rect class="cls-3" y="27.71" width="78.99" height="57.99"/>
  <rect class="cls-1" x=".02" y="27.7" width="78.96" height="3.96"/>
  <path class="cls-2" d="m51.04,53.72c0,4.36-2.57,8.13-6.33,9.97v16.22h-9.76v-15.91c-4.12-1.7-7.01-5.67-7.01-10.28,0-6.18,5.17-11.17,11.54-11.17s11.56,4.99,11.56,11.17Z"/>
</svg>