<?xml version="1.0" encoding="utf-8"?>
<!DOCTYPE svg PUBLIC "-//W3C//DTD SVG 1.1//EN" "http://www.w3.org/Graphics/SVG/1.1/DTD/svg11.dtd">
<svg version="1.1" xmlns="http://www.w3.org/2000/svg" xmlns:xlink="http://www.w3.org/1999/xlink" x="0px" y="0px" width="200px"
	 height="55px" viewBox="0 0 200 55" enable-background="new 0 0 200 55" xml:space="preserve">
<path id="p" fill="#FFFFFF" d="M2.051,23.523c0-3.485-0.109-6.425-0.219-8.929H9.02l0.382,3.702H9.51
	c1.961-2.777,5.009-4.302,8.876-4.302c5.824,0,11.052,5.064,11.052,13.558c0,9.692-6.152,14.266-12.088,14.266
	c-3.211,0-5.716-1.307-6.914-3.049h-0.109V52H2.051V23.523z M10.326,29.785c0,0.652,0.055,1.197,0.164,1.741
	c0.544,2.233,2.449,3.92,4.845,3.92c3.595,0,5.719-2.993,5.719-7.514c0-4.247-1.906-7.459-5.609-7.459
	c-2.341,0-4.41,1.742-4.954,4.192c-0.109,0.436-0.164,0.98-0.164,1.471V29.785z"/>
<path id="r" fill="#FFFFFF" d="M33.572,23.359c0-3.92-0.054-6.479-0.218-8.766h7.079l0.327,4.954h0.217
	c1.362-3.92,4.574-5.553,7.188-5.553c0.762,0,1.144,0.054,1.742,0.163v7.786c-0.708-0.109-1.36-0.218-2.287-0.218
	c-3.049,0-5.117,1.58-5.661,4.193c-0.11,0.545-0.164,1.144-0.164,1.852v13.448h-8.276L33.572,23.359z"/>
<path id="i" fill="#FFFFFF" d="M57.095,11.109c-2.776,0-4.572-1.96-4.572-4.411c0-2.504,1.85-4.41,4.682-4.41
	c2.831,0,4.573,1.906,4.628,4.41c0,2.451-1.797,4.411-4.683,4.411H57.095z M53.013,14.593h8.275v26.625h-8.275V14.593z"/>
<path id="v" fill="#FFFFFF" d="M72.992,14.593l3.594,12.36c0.653,2.232,1.09,4.356,1.524,6.479h0.163
	c0.436-2.179,0.871-4.193,1.471-6.479l3.431-12.36h8.712l-9.91,26.625H73.7l-9.691-26.625H72.992z"/>
<path id="n" fill="#FFFFFF" d="M94.606,25.339c0-7.562,7.215-11.345,12.76-11.345c5.443,0,12.505,3.504,12.505,11.345v15.88
	h-8.277V26.463c0-3.431-1.359-5.772-4.354-5.772c-2.986,0-4.357,2.324-4.357,5.772v14.756h-8.275V25.339z"/>
<path id="o" fill="#FFFFFF" d="M137.674,41.817c-7.787,0-13.776-5.117-13.776-13.722c0-8.603,5.663-14.102,14.265-14.102
	c8.113,0,13.559,5.609,13.559,13.667c0,9.692-6.915,14.157-13.992,14.157H137.674z M137.837,35.883
	c3.267,0,5.279-3.213,5.279-8.004c0-3.92-1.522-7.949-5.279-7.949c-3.921,0-5.445,4.029-5.445,8.003c0,4.521,1.906,7.95,5.39,7.95
	H137.837z"/>
<path id="t" fill="#FFFFFF" d="M165.004,7.351v7.242h5.936v6.098h-5.936v9.692c0,3.213,0.816,4.684,3.267,4.684
	c1.143,0,1.687-0.055,2.45-0.219l0.054,6.263c-1.034,0.38-3.048,0.708-5.335,0.708c-2.668,0-4.901-0.926-6.262-2.287
	c-1.525-1.579-2.287-4.138-2.287-7.896V20.691h-3.539v-6.098h3.539V9.584L165.004,7.351z"/>
<path id="e" fill="#FFFFFF" d="M180.744,30.492c0.271,3.484,3.646,5.118,7.514,5.118c2.831,0,5.118-0.382,7.35-1.143l1.089,5.607
	c-2.723,1.144-6.044,1.688-9.637,1.688c-9.039,0-14.212-5.228-14.212-13.613c0-6.752,4.247-14.211,13.45-14.211
	c8.602,0,11.87,6.697,11.87,13.286c0,1.416-0.163,2.668-0.273,3.321L180.744,30.492z M190.49,24.83
	c0-1.96-0.872-5.391-4.629-5.391c-3.539,0-4.955,3.213-5.173,5.391H190.49z"/>
<rect x="93.006" y="30.454" fill="#E8CF92" width="28.733" height="21.546"/>
<rect x="105.622" y="39.366" fill="#433F36" width="3.5" height="9.144"/>
<path fill="#433F36" d="M107.184,42.617c-2.549,0-4.198-1.861-4.198-4.188c0-2.377,1.698-4.187,4.298-4.187
	c2.599,0,4.197,1.81,4.248,4.187c0,2.328-1.649,4.188-4.299,4.188H107.184z"/>
<rect x="93.006" y="29.143" fill-rule="evenodd" clip-rule="evenodd" fill="#960000" width="28.903" height="1.311"/>
</svg>
